<?xml version="1.0" standalone="no"?>
<!DOCTYPE svg PUBLIC "-//W3C//DTD SVG 1.1//EN" "http://www.w3.org/Graphics/SVG/1.1/DTD/svg11.dtd">
<svg version="1.1" width="1200" height="582" onload="init(evt)" viewBox="0 0 1200 582" xmlns="http://www.w3.org/2000/svg" xmlns:xlink="http://www.w3.org/1999/xlink">
<!-- Flame graph stack visualization. See https://github.com/brendangregg/FlameGraph for latest version, and http://www.brendangregg.com/flamegraphs.html for examples. -->
<!-- NOTES:  -->
<defs>
	<linearGradient id="background" y1="0" y2="1" x1="0" x2="0" >
		<stop stop-color="#eeeeee" offset="5%" />
		<stop stop-color="#eeeeb0" offset="95%" />
	</linearGradient>
</defs>
<style type="text/css">
	text { font-family:Verdana; font-size:12px; fill:rgb(0,0,0); }
	#search, #ignorecase { opacity:0.1; cursor:pointer; }
	#search:hover, #search.show, #ignorecase:hover, #ignorecase.show { opacity:1; }
	#subtitle { text-anchor:middle; font-color:rgb(160,160,160); }
	#title { text-anchor:middle; font-size:17px}
	#unzoom { cursor:pointer; }
	#frames > *:hover { stroke:black; stroke-width:0.5; cursor:pointer; }
	.hide { display:none; }
	.parent { opacity:0.5; }
</style>
<script type="text/ecmascript">
<![CDATA[
	"use strict";
	var details, searchbtn, unzoombtn, matchedtxt, svg, searching, currentSearchTerm, ignorecase, ignorecaseBtn;
	function init(evt) {
		details = document.getElementById("details").firstChild;
		searchbtn = document.getElementById("search");
		ignorecaseBtn = document.getElementById("ignorecase");
		unzoombtn = document.getElementById("unzoom");
		matchedtxt = document.getElementById("matched");
		svg = document.getElementsByTagName("svg")[0];
		searching = 0;
		currentSearchTerm = null;

		// use GET parameters to restore a flamegraphs state.
		var params = get_params();
		if (params.x && params.y)
			zoom(find_group(document.querySelector('[x="' + params.x + '"][y="' + params.y + '"]')));
                if (params.s) search(params.s);
	}

	// event listeners
	window.addEventListener("click", function(e) {
		var target = find_group(e.target);
		if (target) {
			if (target.nodeName == "a") {
				if (e.ctrlKey === false) return;
				e.preventDefault();
			}
			if (target.classList.contains("parent")) unzoom(true);
			zoom(target);
			if (!document.querySelector('.parent')) {
				// we have basically done a clearzoom so clear the url
				var params = get_params();
				if (params.x) delete params.x;
				if (params.y) delete params.y;
				history.replaceState(null, null, parse_params(params));
				unzoombtn.classList.add("hide");
				return;
			}

			// set parameters for zoom state
			var el = target.querySelector("rect");
			if (el && el.attributes && el.attributes.y && el.attributes._orig_x) {
				var params = get_params()
				params.x = el.attributes._orig_x.value;
				params.y = el.attributes.y.value;
				history.replaceState(null, null, parse_params(params));
			}
		}
		else if (e.target.id == "unzoom") clearzoom();
		else if (e.target.id == "search") search_prompt();
		else if (e.target.id == "ignorecase") toggle_ignorecase();
	}, false)

	// mouse-over for info
	// show
	window.addEventListener("mouseover", function(e) {
		var target = find_group(e.target);
		if (target) details.nodeValue = "Function: " + g_to_text(target);
	}, false)

	// clear
	window.addEventListener("mouseout", function(e) {
		var target = find_group(e.target);
		if (target) details.nodeValue = ' ';
	}, false)

	// ctrl-F for search
	// ctrl-I to toggle case-sensitive search
	window.addEventListener("keydown",function (e) {
		if (e.keyCode === 114 || (e.ctrlKey && e.keyCode === 70)) {
			e.preventDefault();
			search_prompt();
		}
		else if (e.ctrlKey && e.keyCode === 73) {
			e.preventDefault();
			toggle_ignorecase();
		}
	}, false)

	// functions
	function get_params() {
		var params = {};
		var paramsarr = window.location.search.substr(1).split('&');
		for (var i = 0; i < paramsarr.length; ++i) {
			var tmp = paramsarr[i].split("=");
			if (!tmp[0] || !tmp[1]) continue;
			params[tmp[0]]  = decodeURIComponent(tmp[1]);
		}
		return params;
	}
	function parse_params(params) {
		var uri = "?";
		for (var key in params) {
			uri += key + '=' + encodeURIComponent(params[key]) + '&';
		}
		if (uri.slice(-1) == "&")
			uri = uri.substring(0, uri.length - 1);
		if (uri == '?')
			uri = window.location.href.split('?')[0];
		return uri;
	}
	function find_child(node, selector) {
		var children = node.querySelectorAll(selector);
		if (children.length) return children[0];
	}
	function find_group(node) {
		var parent = node.parentElement;
		if (!parent) return;
		if (parent.id == "frames") return node;
		return find_group(parent);
	}
	function orig_save(e, attr, val) {
		if (e.attributes["_orig_" + attr] != undefined) return;
		if (e.attributes[attr] == undefined) return;
		if (val == undefined) val = e.attributes[attr].value;
		e.setAttribute("_orig_" + attr, val);
	}
	function orig_load(e, attr) {
		if (e.attributes["_orig_"+attr] == undefined) return;
		e.attributes[attr].value = e.attributes["_orig_" + attr].value;
		e.removeAttribute("_orig_"+attr);
	}
	function g_to_text(e) {
		var text = find_child(e, "title").firstChild.nodeValue;
		return (text)
	}
	function g_to_func(e) {
		var func = g_to_text(e);
		// if there's any manipulation we want to do to the function
		// name before it's searched, do it here before returning.
		return (func);
	}
	function update_text(e) {
		var r = find_child(e, "rect");
		var t = find_child(e, "text");
		var w = parseFloat(r.attributes.width.value) -3;
		var txt = find_child(e, "title").textContent.replace(/\([^(]*\)$/,"");
		t.attributes.x.value = parseFloat(r.attributes.x.value) + 3;

		// Smaller than this size won't fit anything
		if (w < 2 * 12 * 0.59) {
			t.textContent = "";
			return;
		}

		t.textContent = txt;
		var sl = t.getSubStringLength(0, txt.length);
		// check if only whitespace or if we can fit the entire string into width w
		if (/^ *$/.test(txt) || sl < w)
			return;

		// this isn't perfect, but gives a good starting point
		// and avoids calling getSubStringLength too often
		var start = Math.floor((w/sl) * txt.length);
		for (var x = start; x > 0; x = x-2) {
			if (t.getSubStringLength(0, x + 2) <= w) {
				t.textContent = txt.substring(0, x) + "..";
				return;
			}
		}
		t.textContent = "";
	}

	// zoom
	function zoom_reset(e) {
		if (e.attributes != undefined) {
			orig_load(e, "x");
			orig_load(e, "width");
		}
		if (e.childNodes == undefined) return;
		for (var i = 0, c = e.childNodes; i < c.length; i++) {
			zoom_reset(c[i]);
		}
	}
	function zoom_child(e, x, ratio) {
		if (e.attributes != undefined) {
			if (e.attributes.x != undefined) {
				orig_save(e, "x");
				e.attributes.x.value = (parseFloat(e.attributes.x.value) - x - 10) * ratio + 10;
				if (e.tagName == "text")
					e.attributes.x.value = find_child(e.parentNode, "rect[x]").attributes.x.value + 3;
			}
			if (e.attributes.width != undefined) {
				orig_save(e, "width");
				e.attributes.width.value = parseFloat(e.attributes.width.value) * ratio;
			}
		}

		if (e.childNodes == undefined) return;
		for (var i = 0, c = e.childNodes; i < c.length; i++) {
			zoom_child(c[i], x - 10, ratio);
		}
	}
	function zoom_parent(e) {
		if (e.attributes) {
			if (e.attributes.x != undefined) {
				orig_save(e, "x");
				e.attributes.x.value = 10;
			}
			if (e.attributes.width != undefined) {
				orig_save(e, "width");
				e.attributes.width.value = parseInt(svg.width.baseVal.value) - (10 * 2);
			}
		}
		if (e.childNodes == undefined) return;
		for (var i = 0, c = e.childNodes; i < c.length; i++) {
			zoom_parent(c[i]);
		}
	}
	function zoom(node) {
		var attr = find_child(node, "rect").attributes;
		var width = parseFloat(attr.width.value);
		var xmin = parseFloat(attr.x.value);
		var xmax = parseFloat(xmin + width);
		var ymin = parseFloat(attr.y.value);
		var ratio = (svg.width.baseVal.value - 2 * 10) / width;

		// XXX: Workaround for JavaScript float issues (fix me)
		var fudge = 0.0001;

		unzoombtn.classList.remove("hide");

		var el = document.getElementById("frames").children;
		for (var i = 0; i < el.length; i++) {
			var e = el[i];
			var a = find_child(e, "rect").attributes;
			var ex = parseFloat(a.x.value);
			var ew = parseFloat(a.width.value);
			var upstack;
			// Is it an ancestor
			if (0 == 0) {
				upstack = parseFloat(a.y.value) > ymin;
			} else {
				upstack = parseFloat(a.y.value) < ymin;
			}
			if (upstack) {
				// Direct ancestor
				if (ex <= xmin && (ex+ew+fudge) >= xmax) {
					e.classList.add("parent");
					zoom_parent(e);
					update_text(e);
				}
				// not in current path
				else
					e.classList.add("hide");
			}
			// Children maybe
			else {
				// no common path
				if (ex < xmin || ex + fudge >= xmax) {
					e.classList.add("hide");
				}
				else {
					zoom_child(e, xmin, ratio);
					update_text(e);
				}
			}
		}
		search();
	}
	function unzoom(dont_update_text) {
		unzoombtn.classList.add("hide");
		var el = document.getElementById("frames").children;
		for(var i = 0; i < el.length; i++) {
			el[i].classList.remove("parent");
			el[i].classList.remove("hide");
			zoom_reset(el[i]);
			if(!dont_update_text) update_text(el[i]);
		}
		search();
	}
	function clearzoom() {
		unzoom();

		// remove zoom state
		var params = get_params();
		if (params.x) delete params.x;
		if (params.y) delete params.y;
		history.replaceState(null, null, parse_params(params));
	}

	// search
	function toggle_ignorecase() {
		ignorecase = !ignorecase;
		if (ignorecase) {
			ignorecaseBtn.classList.add("show");
		} else {
			ignorecaseBtn.classList.remove("show");
		}
		reset_search();
		search();
	}
	function reset_search() {
		var el = document.querySelectorAll("#frames rect");
		for (var i = 0; i < el.length; i++) {
			orig_load(el[i], "fill")
		}
		var params = get_params();
		delete params.s;
		history.replaceState(null, null, parse_params(params));
	}
	function search_prompt() {
		if (!searching) {
			var term = prompt("Enter a search term (regexp " +
			    "allowed, eg: ^ext4_)"
			    + (ignorecase ? ", ignoring case" : "")
			    + "\nPress Ctrl-i to toggle case sensitivity", "");
			if (term != null) search(term);
		} else {
			reset_search();
			searching = 0;
			currentSearchTerm = null;
			searchbtn.classList.remove("show");
			searchbtn.firstChild.nodeValue = "Search"
			matchedtxt.classList.add("hide");
			matchedtxt.firstChild.nodeValue = ""
		}
	}
	function search(term) {
		if (term) currentSearchTerm = term;
		if (currentSearchTerm === null) return;

		var re = new RegExp(currentSearchTerm, ignorecase ? 'i' : '');
		var el = document.getElementById("frames").children;
		var matches = new Object();
		var maxwidth = 0;
		for (var i = 0; i < el.length; i++) {
			var e = el[i];
			var func = g_to_func(e);
			var rect = find_child(e, "rect");
			if (func == null || rect == null)
				continue;

			// Save max width. Only works as we have a root frame
			var w = parseFloat(rect.attributes.width.value);
			if (w > maxwidth)
				maxwidth = w;

			if (func.match(re)) {
				// highlight
				var x = parseFloat(rect.attributes.x.value);
				orig_save(rect, "fill");
				rect.attributes.fill.value = "rgb(230,0,230)";

				// remember matches
				if (matches[x] == undefined) {
					matches[x] = w;
				} else {
					if (w > matches[x]) {
						// overwrite with parent
						matches[x] = w;
					}
				}
				searching = 1;
			}
		}
		if (!searching)
			return;
		var params = get_params();
		params.s = currentSearchTerm;
		history.replaceState(null, null, parse_params(params));

		searchbtn.classList.add("show");
		searchbtn.firstChild.nodeValue = "Reset Search";

		// calculate percent matched, excluding vertical overlap
		var count = 0;
		var lastx = -1;
		var lastw = 0;
		var keys = Array();
		for (k in matches) {
			if (matches.hasOwnProperty(k))
				keys.push(k);
		}
		// sort the matched frames by their x location
		// ascending, then width descending
		keys.sort(function(a, b){
			return a - b;
		});
		// Step through frames saving only the biggest bottom-up frames
		// thanks to the sort order. This relies on the tree property
		// where children are always smaller than their parents.
		var fudge = 0.0001;	// JavaScript floating point
		for (var k in keys) {
			var x = parseFloat(keys[k]);
			var w = matches[keys[k]];
			if (x >= lastx + lastw - fudge) {
				count += w;
				lastx = x;
				lastw = w;
			}
		}
		// display matched percent
		matchedtxt.classList.remove("hide");
		var pct = 100 * count / maxwidth;
		if (pct != 100) pct = pct.toFixed(1)
		matchedtxt.firstChild.nodeValue = "Matched: " + pct + "%";
	}
]]>
</script>
<rect x="0.0" y="0" width="1200.0" height="582.0" fill="url(#background)"  />
<text id="title" x="600.00" y="24" >Flame Graph</text>
<text id="details" x="10.00" y="565" > </text>
<text id="unzoom" x="10.00" y="24" class="hide">Reset Zoom</text>
<text id="search" x="1090.00" y="24" >Search</text>
<text id="ignorecase" x="1174.00" y="24" >ic</text>
<text id="matched" x="1090.00" y="565" > </text>
<g id="frames">
<g >
<title>[qemu-system-aarch64] (122,510 samples, 3.12%)</title><rect x="554.6" y="437" width="36.8" height="15.0" fill="rgb(242,170,40)" rx="2" ry="2" />
<text  x="557.58" y="447.5" >[qe..</text>
</g>
<g >
<title>[[vdso]] (53,757 samples, 1.37%)</title><rect x="1055.5" y="325" width="16.2" height="15.0" fill="rgb(218,60,14)" rx="2" ry="2" />
<text  x="1058.48" y="335.5" ></text>
</g>
<g >
<title>[qemu-system-aarch64] (2,916 samples, 0.07%)</title><rect x="487.3" y="421" width="0.8" height="15.0" fill="rgb(242,170,40)" rx="2" ry="2" />
<text  x="490.26" y="431.5" ></text>
</g>
<g >
<title>qemu_ram_block_from_host (56,832 samples, 1.45%)</title><rect x="728.8" y="421" width="17.1" height="15.0" fill="rgb(223,83,19)" rx="2" ry="2" />
<text  x="731.79" y="431.5" ></text>
</g>
<g >
<title>update_curr (53,757 samples, 1.37%)</title><rect x="1158.7" y="69" width="16.1" height="15.0" fill="rgb(227,105,25)" rx="2" ry="2" />
<text  x="1161.66" y="79.5" ></text>
</g>
<g >
<title>main_loop_wait (522,339 samples, 13.32%)</title><rect x="1017.9" y="389" width="157.2" height="15.0" fill="rgb(238,153,36)" rx="2" ry="2" />
<text  x="1020.92" y="399.5" >main_loop_wait</text>
</g>
<g >
<title>__clone3 (214,105 samples, 5.46%)</title><rect x="953.5" y="501" width="64.4" height="15.0" fill="rgb(239,158,37)" rx="2" ry="2" />
<text  x="956.51" y="511.5" >__clone3</text>
</g>
<g >
<title>[qemu-system-aarch64] (179,952 samples, 4.59%)</title><rect x="487.3" y="469" width="54.1" height="15.0" fill="rgb(242,170,40)" rx="2" ry="2" />
<text  x="490.26" y="479.5" >[qemu..</text>
</g>
<g >
<title>g_mutex_unlock (129,325 samples, 3.30%)</title><rect x="1071.7" y="373" width="38.9" height="15.0" fill="rgb(222,78,18)" rx="2" ry="2" />
<text  x="1074.65" y="383.5" >g_m..</text>
</g>
<g >
<title>__sysvec_apic_timer_interrupt (50,987 samples, 1.30%)</title><rect x="500.0" y="405" width="15.4" height="15.0" fill="rgb(242,173,41)" rx="2" ry="2" />
<text  x="503.02" y="415.5" ></text>
</g>
<g >
<title>[qemu-system-aarch64] (39,508 samples, 1.01%)</title><rect x="488.1" y="373" width="11.9" height="15.0" fill="rgb(242,170,40)" rx="2" ry="2" />
<text  x="491.13" y="383.5" ></text>
</g>
<g >
<title>futex_wake (53,757 samples, 1.37%)</title><rect x="1158.7" y="181" width="16.1" height="15.0" fill="rgb(219,65,15)" rx="2" ry="2" />
<text  x="1161.66" y="191.5" ></text>
</g>
<g >
<title>ksys_write (54,765 samples, 1.40%)</title><rect x="780.9" y="309" width="16.5" height="15.0" fill="rgb(205,4,1)" rx="2" ry="2" />
<text  x="783.95" y="319.5" ></text>
</g>
<g >
<title>qemu_poll_ns (768 samples, 0.02%)</title><rect x="1174.8" y="373" width="0.3" height="15.0" fill="rgb(254,227,54)" rx="2" ry="2" />
<text  x="1177.83" y="383.5" ></text>
</g>
<g >
<title>[qemu-system-aarch64] (74,675 samples, 1.90%)</title><rect x="554.6" y="309" width="22.4" height="15.0" fill="rgb(242,170,40)" rx="2" ry="2" />
<text  x="557.58" y="319.5" >[..</text>
</g>
<g >
<title>[qemu-system-aarch64] (74,675 samples, 1.90%)</title><rect x="554.6" y="421" width="22.4" height="15.0" fill="rgb(242,170,40)" rx="2" ry="2" />
<text  x="557.58" y="431.5" >[..</text>
</g>
<g >
<title>___pthread_mutex_lock (20,872 samples, 0.53%)</title><rect x="1032.0" y="373" width="6.3" height="15.0" fill="rgb(206,7,1)" rx="2" ry="2" />
<text  x="1035.01" y="383.5" ></text>
</g>
<g >
<title>do_syscall_64 (512 samples, 0.01%)</title><rect x="1017.2" y="309" width="0.2" height="15.0" fill="rgb(209,20,4)" rx="2" ry="2" />
<text  x="1020.24" y="319.5" ></text>
</g>
<g >
<title>do_syscall_64 (768 samples, 0.02%)</title><rect x="1174.8" y="309" width="0.3" height="15.0" fill="rgb(209,20,4)" rx="2" ry="2" />
<text  x="1177.83" y="319.5" ></text>
</g>
<g >
<title>all (3,922,281 samples, 100%)</title><rect x="10.0" y="533" width="1180.0" height="15.0" fill="rgb(213,39,9)" rx="2" ry="2" />
<text  x="13.00" y="543.5" ></text>
</g>
<g >
<title>enqueue_entity (53,757 samples, 1.37%)</title><rect x="1158.7" y="85" width="16.1" height="15.0" fill="rgb(218,62,15)" rx="2" ry="2" />
<text  x="1161.66" y="95.5" ></text>
</g>
<g >
<title>sysvec_apic_timer_interrupt (50,987 samples, 1.30%)</title><rect x="500.0" y="421" width="15.4" height="15.0" fill="rgb(220,69,16)" rx="2" ry="2" />
<text  x="503.02" y="431.5" ></text>
</g>
<g >
<title>[qemu-system-aarch64] (212,633 samples, 5.42%)</title><rect x="953.5" y="469" width="64.0" height="15.0" fill="rgb(242,170,40)" rx="2" ry="2" />
<text  x="956.51" y="479.5" >[qemu-s..</text>
</g>
<g >
<title>__libc_write (54,765 samples, 1.40%)</title><rect x="780.9" y="405" width="16.5" height="15.0" fill="rgb(238,154,37)" rx="2" ry="2" />
<text  x="783.95" y="415.5" ></text>
</g>
<g >
<title>[qemu-system-aarch64] (179,952 samples, 4.59%)</title><rect x="487.3" y="453" width="54.1" height="15.0" fill="rgb(242,170,40)" rx="2" ry="2" />
<text  x="490.26" y="463.5" >[qemu..</text>
</g>
<g >
<title>__malloc_arena_thread_freeres (1,472 samples, 0.04%)</title><rect x="1017.5" y="469" width="0.4" height="15.0" fill="rgb(245,184,44)" rx="2" ry="2" />
<text  x="1020.48" y="479.5" ></text>
</g>
<g >
<title>get_phys_addr (47,146 samples, 1.20%)</title><rect x="953.6" y="309" width="14.2" height="15.0" fill="rgb(244,179,43)" rx="2" ry="2" />
<text  x="956.58" y="319.5" ></text>
</g>
<g >
<title>tcg_tb_lookup (86,541 samples, 2.21%)</title><rect x="515.4" y="421" width="26.0" height="15.0" fill="rgb(247,194,46)" rx="2" ry="2" />
<text  x="518.36" y="431.5" >t..</text>
</g>
<g >
<title>handle_softirqs (50,461 samples, 1.29%)</title><rect x="845.0" y="405" width="15.2" height="15.0" fill="rgb(238,156,37)" rx="2" ry="2" />
<text  x="848.01" y="415.5" ></text>
</g>
<g >
<title>wake_up_q (53,757 samples, 1.37%)</title><rect x="1158.7" y="165" width="16.1" height="15.0" fill="rgb(237,151,36)" rx="2" ry="2" />
<text  x="1161.66" y="175.5" ></text>
</g>
<g >
<title>entry_SYSCALL_64_after_hwframe (54,765 samples, 1.40%)</title><rect x="780.9" y="373" width="16.5" height="15.0" fill="rgb(218,63,15)" rx="2" ry="2" />
<text  x="783.95" y="383.5" ></text>
</g>
<g >
<title>ppoll (768 samples, 0.02%)</title><rect x="1174.8" y="357" width="0.3" height="15.0" fill="rgb(254,226,54)" rx="2" ry="2" />
<text  x="1177.83" y="367.5" ></text>
</g>
<g >
<title>sched_balance_domains (50,461 samples, 1.29%)</title><rect x="845.0" y="373" width="15.2" height="15.0" fill="rgb(221,75,18)" rx="2" ry="2" />
<text  x="848.01" y="383.5" ></text>
</g>
<g >
<title>entry_SYSCALL_64_after_hwframe (512 samples, 0.01%)</title><rect x="1017.2" y="325" width="0.2" height="15.0" fill="rgb(218,63,15)" rx="2" ry="2" />
<text  x="1020.24" y="335.5" ></text>
</g>
<g >
<title>[qemu-system-aarch64] (47,146 samples, 1.20%)</title><rect x="953.6" y="293" width="14.2" height="15.0" fill="rgb(242,170,40)" rx="2" ry="2" />
<text  x="956.58" y="303.5" ></text>
</g>
<g >
<title>enqueue_task (50,987 samples, 1.30%)</title><rect x="500.0" y="293" width="15.4" height="15.0" fill="rgb(230,116,27)" rx="2" ry="2" />
<text  x="503.02" y="303.5" ></text>
</g>
<g >
<title>qht_lookup_custom (116,528 samples, 2.97%)</title><rect x="745.9" y="437" width="35.0" height="15.0" fill="rgb(223,87,20)" rx="2" ry="2" />
<text  x="748.89" y="447.5" >qh..</text>
</g>
<g >
<title>ttwu_do_activate (50,987 samples, 1.30%)</title><rect x="500.0" y="309" width="15.4" height="15.0" fill="rgb(215,48,11)" rx="2" ry="2" />
<text  x="503.02" y="319.5" ></text>
</g>
<g >
<title>[libglib-2.0.so.0.8800.0] (86,541 samples, 2.21%)</title><rect x="515.4" y="389" width="26.0" height="15.0" fill="rgb(208,14,3)" rx="2" ry="2" />
<text  x="518.36" y="399.5" >[..</text>
</g>
<g >
<title>sysvec_apic_timer_interrupt (50,461 samples, 1.29%)</title><rect x="845.0" y="453" width="15.2" height="15.0" fill="rgb(220,69,16)" rx="2" ry="2" />
<text  x="848.01" y="463.5" ></text>
</g>
<g >
<title>[qemu-system-aarch64] (207,908 samples, 5.30%)</title><rect x="666.2" y="421" width="62.6" height="15.0" fill="rgb(242,170,40)" rx="2" ry="2" />
<text  x="669.25" y="431.5" >[qemu-..</text>
</g>
<g >
<title>tcache_thread_shutdown (1,472 samples, 0.04%)</title><rect x="1017.5" y="453" width="0.4" height="15.0" fill="rgb(212,32,7)" rx="2" ry="2" />
<text  x="1020.48" y="463.5" ></text>
</g>
<g >
<title>g_tree_lookup (86,541 samples, 2.21%)</title><rect x="515.4" y="405" width="26.0" height="15.0" fill="rgb(227,105,25)" rx="2" ry="2" />
<text  x="518.36" y="415.5" >g..</text>
</g>
<g >
<title>futex_wake (53,757 samples, 1.37%)</title><rect x="1158.7" y="277" width="16.1" height="15.0" fill="rgb(219,65,15)" rx="2" ry="2" />
<text  x="1161.66" y="287.5" ></text>
</g>
<g >
<title>[perf-17353.map] (2,617,375 samples, 66.73%)</title><rect x="10.0" y="485" width="787.4" height="15.0" fill="rgb(238,153,36)" rx="2" ry="2" />
<text  x="13.00" y="495.5" >[perf-17353.map]</text>
</g>
<g >
<title>[qemu-system-aarch64] (768 samples, 0.02%)</title><rect x="1017.2" y="421" width="0.2" height="15.0" fill="rgb(242,170,40)" rx="2" ry="2" />
<text  x="1020.17" y="431.5" ></text>
</g>
<g >
<title>[qemu-system-aarch64] (46,849 samples, 1.19%)</title><rect x="1017.9" y="373" width="14.1" height="15.0" fill="rgb(242,170,40)" rx="2" ry="2" />
<text  x="1020.92" y="383.5" ></text>
</g>
<g >
<title>[qemu-system-aarch64] (39,508 samples, 1.01%)</title><rect x="488.1" y="405" width="11.9" height="15.0" fill="rgb(242,170,40)" rx="2" ry="2" />
<text  x="491.13" y="415.5" ></text>
</g>
<g >
<title>cpu_io_recompile (86,541 samples, 2.21%)</title><rect x="515.4" y="437" width="26.0" height="15.0" fill="rgb(220,71,17)" rx="2" ry="2" />
<text  x="518.36" y="447.5" >c..</text>
</g>
<g >
<title>[qemu-system-aarch64] (381,268 samples, 9.72%)</title><rect x="666.2" y="453" width="114.7" height="15.0" fill="rgb(242,170,40)" rx="2" ry="2" />
<text  x="669.25" y="463.5" >[qemu-system-a..</text>
</g>
<g >
<title>try_to_wake_up (53,757 samples, 1.37%)</title><rect x="1158.7" y="149" width="16.1" height="15.0" fill="rgb(220,70,16)" rx="2" ry="2" />
<text  x="1161.66" y="159.5" ></text>
</g>
<g >
<title>cpu_io_recompile (47,835 samples, 1.22%)</title><rect x="577.0" y="421" width="14.4" height="15.0" fill="rgb(220,71,17)" rx="2" ry="2" />
<text  x="580.04" y="431.5" ></text>
</g>
<g >
<title>helper_ldq_mmu (66,759 samples, 1.70%)</title><rect x="860.2" y="485" width="20.1" height="15.0" fill="rgb(214,42,10)" rx="2" ry="2" />
<text  x="863.19" y="495.5" ></text>
</g>
<g >
<title>gic_acknowledge_irq (74,675 samples, 1.90%)</title><rect x="554.6" y="325" width="22.4" height="15.0" fill="rgb(240,164,39)" rx="2" ry="2" />
<text  x="557.58" y="335.5" >g..</text>
</g>
<g >
<title>__syscall_cancel_arch (768 samples, 0.02%)</title><rect x="1174.8" y="341" width="0.3" height="15.0" fill="rgb(239,157,37)" rx="2" ry="2" />
<text  x="1177.83" y="351.5" ></text>
</g>
<g >
<title>tcg_tb_insert (63,812 samples, 1.63%)</title><rect x="967.8" y="373" width="19.2" height="15.0" fill="rgb(229,112,26)" rx="2" ry="2" />
<text  x="970.84" y="383.5" ></text>
</g>
<g >
<title>[libglib-2.0.so.0.8800.0] (110,882 samples, 2.83%)</title><rect x="1038.3" y="357" width="33.4" height="15.0" fill="rgb(208,14,3)" rx="2" ry="2" />
<text  x="1041.29" y="367.5" >[l..</text>
</g>
<g >
<title>__syscall_cancel_arch (512 samples, 0.01%)</title><rect x="1017.2" y="341" width="0.2" height="15.0" fill="rgb(239,157,37)" rx="2" ry="2" />
<text  x="1020.24" y="351.5" ></text>
</g>
<g >
<title>do_poll.constprop.0 (768 samples, 0.02%)</title><rect x="1174.8" y="245" width="0.3" height="15.0" fill="rgb(236,145,34)" rx="2" ry="2" />
<text  x="1177.83" y="255.5" ></text>
</g>
<g >
<title>qemu_cond_timedwait_impl (768 samples, 0.02%)</title><rect x="1017.2" y="437" width="0.2" height="15.0" fill="rgb(210,23,5)" rx="2" ry="2" />
<text  x="1020.17" y="447.5" ></text>
</g>
<g >
<title>entry_SYSCALL_64_after_hwframe (53,757 samples, 1.37%)</title><rect x="1158.7" y="261" width="16.1" height="15.0" fill="rgb(218,63,15)" rx="2" ry="2" />
<text  x="1161.66" y="271.5" ></text>
</g>
<g >
<title>x64_sys_call (768 samples, 0.02%)</title><rect x="1174.8" y="293" width="0.3" height="15.0" fill="rgb(247,194,46)" rx="2" ry="2" />
<text  x="1177.83" y="303.5" ></text>
</g>
<g >
<title>__irq_exit_rcu (50,461 samples, 1.29%)</title><rect x="845.0" y="421" width="15.2" height="15.0" fill="rgb(227,101,24)" rx="2" ry="2" />
<text  x="848.01" y="431.5" ></text>
</g>
<g >
<title>qemu_clock_run_all_timers (213,643 samples, 5.45%)</title><rect x="1110.6" y="373" width="64.2" height="15.0" fill="rgb(243,175,41)" rx="2" ry="2" />
<text  x="1113.56" y="383.5" >qemu_cl..</text>
</g>
<g >
<title>helper_access_check_cp_reg (43,818 samples, 1.12%)</title><rect x="541.4" y="469" width="13.2" height="15.0" fill="rgb(218,63,15)" rx="2" ry="2" />
<text  x="544.39" y="479.5" ></text>
</g>
<g >
<title>vfs_write (54,765 samples, 1.40%)</title><rect x="780.9" y="293" width="16.5" height="15.0" fill="rgb(250,209,50)" rx="2" ry="2" />
<text  x="783.95" y="303.5" ></text>
</g>
<g >
<title>_int_free_chunk (1,472 samples, 0.04%)</title><rect x="1017.5" y="437" width="0.4" height="15.0" fill="rgb(215,46,11)" rx="2" ry="2" />
<text  x="1020.48" y="447.5" ></text>
</g>
<g >
<title>[qemu-system-aarch64] (74,675 samples, 1.90%)</title><rect x="554.6" y="341" width="22.4" height="15.0" fill="rgb(242,170,40)" rx="2" ry="2" />
<text  x="557.58" y="351.5" >[..</text>
</g>
<g >
<title>g_tree_lookup (47,835 samples, 1.22%)</title><rect x="577.0" y="405" width="14.4" height="15.0" fill="rgb(227,105,25)" rx="2" ry="2" />
<text  x="580.04" y="415.5" ></text>
</g>
<g >
<title>[qemu-system-aarch64] (42,424 samples, 1.08%)</title><rect x="487.3" y="437" width="12.7" height="15.0" fill="rgb(242,170,40)" rx="2" ry="2" />
<text  x="490.26" y="447.5" ></text>
</g>
<g >
<title>x64_sys_call (54,765 samples, 1.40%)</title><rect x="780.9" y="341" width="16.5" height="15.0" fill="rgb(247,194,46)" rx="2" ry="2" />
<text  x="783.95" y="351.5" ></text>
</g>
<g >
<title>address_space_translate_for_iotlb (147,541 samples, 3.76%)</title><rect x="684.4" y="373" width="44.4" height="15.0" fill="rgb(250,210,50)" rx="2" ry="2" />
<text  x="687.41" y="383.5" >addr..</text>
</g>
<g >
<title>[qemu-system-aarch64] (159,716 samples, 4.07%)</title><rect x="953.6" y="421" width="48.0" height="15.0" fill="rgb(242,170,40)" rx="2" ry="2" />
<text  x="956.58" y="431.5" >[qem..</text>
</g>
<g >
<title>replay_mutex_lock (49,655 samples, 1.27%)</title><rect x="1175.1" y="389" width="14.9" height="15.0" fill="rgb(235,140,33)" rx="2" ry="2" />
<text  x="1178.06" y="399.5" ></text>
</g>
<g >
<title>start_thread (214,105 samples, 5.46%)</title><rect x="953.5" y="485" width="64.4" height="15.0" fill="rgb(212,34,8)" rx="2" ry="2" />
<text  x="956.51" y="495.5" >start_t..</text>
</g>
<g >
<title>__libc_start_call_main (571,994 samples, 14.58%)</title><rect x="1017.9" y="453" width="172.1" height="15.0" fill="rgb(210,26,6)" rx="2" ry="2" />
<text  x="1020.92" y="463.5" >__libc_start_call_main</text>
</g>
<g >
<title>x64_sys_call (53,757 samples, 1.37%)</title><rect x="1158.7" y="229" width="16.1" height="15.0" fill="rgb(247,194,46)" rx="2" ry="2" />
<text  x="1161.66" y="239.5" ></text>
</g>
<g >
<title>g_main_context_check (110,882 samples, 2.83%)</title><rect x="1038.3" y="373" width="33.4" height="15.0" fill="rgb(249,204,48)" rx="2" ry="2" />
<text  x="1041.29" y="383.5" >g_..</text>
</g>
<g >
<title>_int_free_merge_chunk (1,472 samples, 0.04%)</title><rect x="1017.5" y="421" width="0.4" height="15.0" fill="rgb(240,163,39)" rx="2" ry="2" />
<text  x="1020.48" y="431.5" ></text>
</g>
<g >
<title>enqueue_task_fair (53,757 samples, 1.37%)</title><rect x="1158.7" y="101" width="16.1" height="15.0" fill="rgb(216,52,12)" rx="2" ry="2" />
<text  x="1161.66" y="111.5" ></text>
</g>
<g >
<title>[qemu-system-aarch64] (74,675 samples, 1.90%)</title><rect x="554.6" y="373" width="22.4" height="15.0" fill="rgb(242,170,40)" rx="2" ry="2" />
<text  x="557.58" y="383.5" >[..</text>
</g>
<g >
<title>__syscall_cancel_arch (54,765 samples, 1.40%)</title><rect x="780.9" y="389" width="16.5" height="15.0" fill="rgb(239,157,37)" rx="2" ry="2" />
<text  x="783.95" y="399.5" ></text>
</g>
<g >
<title>[qemu-system-aarch64] (54,765 samples, 1.40%)</title><rect x="780.9" y="437" width="16.5" height="15.0" fill="rgb(242,170,40)" rx="2" ry="2" />
<text  x="783.95" y="447.5" ></text>
</g>
<g >
<title>rw_verify_area (54,765 samples, 1.40%)</title><rect x="780.9" y="277" width="16.5" height="15.0" fill="rgb(218,64,15)" rx="2" ry="2" />
<text  x="783.95" y="287.5" ></text>
</g>
<g >
<title>arm_cpu_tlb_fill_align (47,146 samples, 1.20%)</title><rect x="953.6" y="325" width="14.2" height="15.0" fill="rgb(231,122,29)" rx="2" ry="2" />
<text  x="956.58" y="335.5" ></text>
</g>
<g >
<title>event_notifier_set (54,765 samples, 1.40%)</title><rect x="780.9" y="421" width="16.5" height="15.0" fill="rgb(233,129,30)" rx="2" ry="2" />
<text  x="783.95" y="431.5" ></text>
</g>
<g >
<title>do_syscall_64 (53,757 samples, 1.37%)</title><rect x="1158.7" y="245" width="16.1" height="15.0" fill="rgb(209,20,4)" rx="2" ry="2" />
<text  x="1161.66" y="255.5" ></text>
</g>
<g >
<title>update_se (53,757 samples, 1.37%)</title><rect x="1158.7" y="53" width="16.1" height="15.0" fill="rgb(250,210,50)" rx="2" ry="2" />
<text  x="1161.66" y="63.5" ></text>
</g>
<g >
<title>enqueue_task (53,757 samples, 1.37%)</title><rect x="1158.7" y="117" width="16.1" height="15.0" fill="rgb(230,116,27)" rx="2" ry="2" />
<text  x="1161.66" y="127.5" ></text>
</g>
<g >
<title>do_syscall_64 (54,765 samples, 1.40%)</title><rect x="780.9" y="357" width="16.5" height="15.0" fill="rgb(209,20,4)" rx="2" ry="2" />
<text  x="783.95" y="367.5" ></text>
</g>
<g >
<title>sched_balance_rq (50,461 samples, 1.29%)</title><rect x="845.0" y="357" width="15.2" height="15.0" fill="rgb(230,117,28)" rx="2" ry="2" />
<text  x="848.01" y="367.5" ></text>
</g>
<g >
<title>wake_up_process (50,987 samples, 1.30%)</title><rect x="500.0" y="341" width="15.4" height="15.0" fill="rgb(213,37,8)" rx="2" ry="2" />
<text  x="503.02" y="351.5" ></text>
</g>
<g >
<title>helper_access_check_cp_reg (208,622 samples, 5.32%)</title><rect x="797.4" y="485" width="62.8" height="15.0" fill="rgb(218,63,15)" rx="2" ry="2" />
<text  x="800.43" y="495.5" >helper..</text>
</g>
<g >
<title>[qemu-system-aarch64] (213,643 samples, 5.45%)</title><rect x="1110.6" y="341" width="64.2" height="15.0" fill="rgb(242,170,40)" rx="2" ry="2" />
<text  x="1113.56" y="351.5" >[qemu-s..</text>
</g>
<g >
<title>[qemu-system-aarch64] (571,994 samples, 14.58%)</title><rect x="1017.9" y="421" width="172.1" height="15.0" fill="rgb(242,170,40)" rx="2" ry="2" />
<text  x="1020.92" y="431.5" >[qemu-system-aarch64]</text>
</g>
<g >
<title>psi_task_change (50,987 samples, 1.30%)</title><rect x="500.0" y="277" width="15.4" height="15.0" fill="rgb(215,46,11)" rx="2" ry="2" />
<text  x="503.02" y="287.5" ></text>
</g>
<g >
<title>__cgroup_account_cputime (53,757 samples, 1.37%)</title><rect x="1158.7" y="37" width="16.1" height="15.0" fill="rgb(229,113,27)" rx="2" ry="2" />
<text  x="1161.66" y="47.5" ></text>
</g>
<g >
<title>qemu_main_loop (571,994 samples, 14.58%)</title><rect x="1017.9" y="405" width="172.1" height="15.0" fill="rgb(218,64,15)" rx="2" ry="2" />
<text  x="1020.92" y="415.5" >qemu_main_loop</text>
</g>
<g >
<title>begin_current_label_crit_section (54,765 samples, 1.40%)</title><rect x="780.9" y="229" width="16.5" height="15.0" fill="rgb(237,148,35)" rx="2" ry="2" />
<text  x="783.95" y="239.5" ></text>
</g>
<g >
<title>main (571,994 samples, 14.58%)</title><rect x="1017.9" y="437" width="172.1" height="15.0" fill="rgb(243,179,42)" rx="2" ry="2" />
<text  x="1020.92" y="447.5" >main</text>
</g>
<g >
<title>_start (571,994 samples, 14.58%)</title><rect x="1017.9" y="501" width="172.1" height="15.0" fill="rgb(245,185,44)" rx="2" ry="2" />
<text  x="1020.92" y="511.5" >_start</text>
</g>
<g >
<title>[qemu-system-aarch64] (39,508 samples, 1.01%)</title><rect x="488.1" y="389" width="11.9" height="15.0" fill="rgb(242,170,40)" rx="2" ry="2" />
<text  x="491.13" y="399.5" ></text>
</g>
<g >
<title>__hrtimer_run_queues (50,987 samples, 1.30%)</title><rect x="500.0" y="373" width="15.4" height="15.0" fill="rgb(237,150,35)" rx="2" ry="2" />
<text  x="503.02" y="383.5" ></text>
</g>
<g >
<title>[qemu-system-aarch64] (47,146 samples, 1.20%)</title><rect x="953.6" y="389" width="14.2" height="15.0" fill="rgb(242,170,40)" rx="2" ry="2" />
<text  x="956.58" y="399.5" ></text>
</g>
<g >
<title>[qemu-system-aarch64] (74,675 samples, 1.90%)</title><rect x="554.6" y="357" width="22.4" height="15.0" fill="rgb(242,170,40)" rx="2" ry="2" />
<text  x="557.58" y="367.5" >[..</text>
</g>
<g >
<title>__futex_abstimed_wait_common (512 samples, 0.01%)</title><rect x="1017.2" y="357" width="0.2" height="15.0" fill="rgb(205,0,0)" rx="2" ry="2" />
<text  x="1020.24" y="367.5" ></text>
</g>
<g >
<title>cpu_thread_is_idle (51,637 samples, 1.32%)</title><rect x="1001.6" y="437" width="15.6" height="15.0" fill="rgb(225,93,22)" rx="2" ry="2" />
<text  x="1004.63" y="447.5" ></text>
</g>
<g >
<title>[qemu-system-aarch64] (122,510 samples, 3.12%)</title><rect x="554.6" y="453" width="36.8" height="15.0" fill="rgb(242,170,40)" rx="2" ry="2" />
<text  x="557.58" y="463.5" >[qe..</text>
</g>
<g >
<title>[unknown] (3,136,182 samples, 79.96%)</title><rect x="10.0" y="501" width="943.5" height="15.0" fill="rgb(210,24,5)" rx="2" ry="2" />
<text  x="13.00" y="511.5" >[unknown]</text>
</g>
<g >
<title>__clock_gettime (53,757 samples, 1.37%)</title><rect x="1055.5" y="341" width="16.2" height="15.0" fill="rgb(236,143,34)" rx="2" ry="2" />
<text  x="1058.48" y="351.5" ></text>
</g>
<g >
<title>[qemu-system-aarch64] (63,812 samples, 1.63%)</title><rect x="967.8" y="357" width="19.2" height="15.0" fill="rgb(242,170,40)" rx="2" ry="2" />
<text  x="970.84" y="367.5" ></text>
</g>
<g >
<title>[qemu-system-aarch64] (147,541 samples, 3.76%)</title><rect x="684.4" y="405" width="44.4" height="15.0" fill="rgb(242,170,40)" rx="2" ry="2" />
<text  x="687.41" y="415.5" >[qem..</text>
</g>
<g >
<title>qemu-system-aar (3,922,281 samples, 100.00%)</title><rect x="10.0" y="517" width="1180.0" height="15.0" fill="rgb(226,100,23)" rx="2" ry="2" />
<text  x="13.00" y="527.5" >qemu-system-aar</text>
</g>
<g >
<title>[qemu-system-aarch64] (111,214 samples, 2.84%)</title><rect x="953.6" y="405" width="33.4" height="15.0" fill="rgb(242,170,40)" rx="2" ry="2" />
<text  x="956.58" y="415.5" >[q..</text>
</g>
<g >
<title>___pthread_cond_timedwait64 (768 samples, 0.02%)</title><rect x="1017.2" y="405" width="0.2" height="15.0" fill="rgb(237,151,36)" rx="2" ry="2" />
<text  x="1020.17" y="415.5" ></text>
</g>
<g >
<title>helper_set_cp_reg64 (54,765 samples, 1.40%)</title><rect x="780.9" y="469" width="16.5" height="15.0" fill="rgb(241,167,40)" rx="2" ry="2" />
<text  x="783.95" y="479.5" ></text>
</g>
<g >
<title>do_sys_poll (768 samples, 0.02%)</title><rect x="1174.8" y="261" width="0.3" height="15.0" fill="rgb(219,68,16)" rx="2" ry="2" />
<text  x="1177.83" y="271.5" ></text>
</g>
<g >
<title>helper_msr_i_daifset (47,382 samples, 1.21%)</title><rect x="925.2" y="485" width="14.3" height="15.0" fill="rgb(221,77,18)" rx="2" ry="2" />
<text  x="928.22" y="495.5" ></text>
</g>
<g >
<title>asm_sysvec_apic_timer_interrupt (50,987 samples, 1.30%)</title><rect x="500.0" y="437" width="15.4" height="15.0" fill="rgb(232,127,30)" rx="2" ry="2" />
<text  x="503.02" y="447.5" ></text>
</g>
<g >
<title>try_to_wake_up (50,987 samples, 1.30%)</title><rect x="500.0" y="325" width="15.4" height="15.0" fill="rgb(220,70,16)" rx="2" ry="2" />
<text  x="503.02" y="335.5" ></text>
</g>
<g >
<title>__x64_sys_write (54,765 samples, 1.40%)</title><rect x="780.9" y="325" width="16.5" height="15.0" fill="rgb(246,189,45)" rx="2" ry="2" />
<text  x="783.95" y="335.5" ></text>
</g>
<g >
<title>__x64_sys_futex (53,757 samples, 1.37%)</title><rect x="1158.7" y="213" width="16.1" height="15.0" fill="rgb(239,159,38)" rx="2" ry="2" />
<text  x="1161.66" y="223.5" ></text>
</g>
<g >
<title>irq_exit_rcu (50,461 samples, 1.29%)</title><rect x="845.0" y="437" width="15.2" height="15.0" fill="rgb(254,227,54)" rx="2" ry="2" />
<text  x="848.01" y="447.5" ></text>
</g>
<g >
<title>[qemu-system-aarch64] (213,643 samples, 5.45%)</title><rect x="1110.6" y="325" width="64.2" height="15.0" fill="rgb(242,170,40)" rx="2" ry="2" />
<text  x="1113.56" y="335.5" >[qemu-s..</text>
</g>
<g >
<title>helper_lookup_tb_ptr (149,390 samples, 3.81%)</title><rect x="880.3" y="485" width="44.9" height="15.0" fill="rgb(244,180,43)" rx="2" ry="2" />
<text  x="883.27" y="495.5" >help..</text>
</g>
<g >
<title>memory_region_dispatch_write (39,508 samples, 1.01%)</title><rect x="488.1" y="421" width="11.9" height="15.0" fill="rgb(253,222,53)" rx="2" ry="2" />
<text  x="491.13" y="431.5" ></text>
</g>
<g >
<title>get_page_addr_code_hostp (47,146 samples, 1.20%)</title><rect x="953.6" y="373" width="14.2" height="15.0" fill="rgb(209,18,4)" rx="2" ry="2" />
<text  x="956.58" y="383.5" ></text>
</g>
<g >
<title>call_init (571,994 samples, 14.58%)</title><rect x="1017.9" y="469" width="172.1" height="15.0" fill="rgb(221,77,18)" rx="2" ry="2" />
<text  x="1020.92" y="479.5" >call_init</text>
</g>
<g >
<title>_int_free_create_chunk (1,472 samples, 0.04%)</title><rect x="1017.5" y="405" width="0.4" height="15.0" fill="rgb(244,182,43)" rx="2" ry="2" />
<text  x="1020.48" y="415.5" ></text>
</g>
<g >
<title>sched_balance_softirq (50,461 samples, 1.29%)</title><rect x="845.0" y="389" width="15.2" height="15.0" fill="rgb(234,133,32)" rx="2" ry="2" />
<text  x="848.01" y="399.5" ></text>
</g>
<g >
<title>entry_SYSCALL_64_after_hwframe (768 samples, 0.02%)</title><rect x="1174.8" y="325" width="0.3" height="15.0" fill="rgb(218,63,15)" rx="2" ry="2" />
<text  x="1177.83" y="335.5" ></text>
</g>
<g >
<title>[libglib-2.0.so.0.8800.0] (55,520 samples, 1.42%)</title><rect x="1038.8" y="341" width="16.7" height="15.0" fill="rgb(208,14,3)" rx="2" ry="2" />
<text  x="1041.77" y="351.5" ></text>
</g>
<g >
<title>tb_gen_code (63,812 samples, 1.63%)</title><rect x="967.8" y="389" width="19.2" height="15.0" fill="rgb(220,70,16)" rx="2" ry="2" />
<text  x="970.84" y="399.5" ></text>
</g>
<g >
<title>[qemu-system-aarch64] (47,146 samples, 1.20%)</title><rect x="953.6" y="357" width="14.2" height="15.0" fill="rgb(242,170,40)" rx="2" ry="2" />
<text  x="956.58" y="367.5" ></text>
</g>
<g >
<title>[qemu-system-aarch64] (47,146 samples, 1.20%)</title><rect x="953.6" y="341" width="14.2" height="15.0" fill="rgb(242,170,40)" rx="2" ry="2" />
<text  x="956.58" y="351.5" ></text>
</g>
<g >
<title>apparmor_file_permission (54,765 samples, 1.40%)</title><rect x="780.9" y="245" width="16.5" height="15.0" fill="rgb(218,60,14)" rx="2" ry="2" />
<text  x="783.95" y="255.5" ></text>
</g>
<g >
<title>arm_get_tb_cpu_state (48,502 samples, 1.24%)</title><rect x="987.0" y="405" width="14.6" height="15.0" fill="rgb(252,218,52)" rx="2" ry="2" />
<text  x="990.04" y="415.5" ></text>
</g>
<g >
<title>do_futex (53,757 samples, 1.37%)</title><rect x="1158.7" y="197" width="16.1" height="15.0" fill="rgb(245,184,44)" rx="2" ry="2" />
<text  x="1161.66" y="207.5" ></text>
</g>
<g >
<title>get_page_addr_code_hostp (264,740 samples, 6.75%)</title><rect x="666.2" y="437" width="79.7" height="15.0" fill="rgb(209,18,4)" rx="2" ry="2" />
<text  x="669.25" y="447.5" >get_page_..</text>
</g>
<g >
<title>hrtimer_wakeup (50,987 samples, 1.30%)</title><rect x="500.0" y="357" width="15.4" height="15.0" fill="rgb(252,219,52)" rx="2" ry="2" />
<text  x="503.02" y="367.5" ></text>
</g>
<g >
<title>__x64_sys_ppoll (768 samples, 0.02%)</title><rect x="1174.8" y="277" width="0.3" height="15.0" fill="rgb(222,78,18)" rx="2" ry="2" />
<text  x="1177.83" y="287.5" ></text>
</g>
<g >
<title>qemu_cpu_kick (53,757 samples, 1.37%)</title><rect x="1158.7" y="309" width="16.1" height="15.0" fill="rgb(224,90,21)" rx="2" ry="2" />
<text  x="1161.66" y="319.5" ></text>
</g>
<g >
<title>helper_rbit (46,654 samples, 1.19%)</title><rect x="939.5" y="485" width="14.0" height="15.0" fill="rgb(218,61,14)" rx="2" ry="2" />
<text  x="942.47" y="495.5" ></text>
</g>
<g >
<title>hrtimer_interrupt (50,987 samples, 1.30%)</title><rect x="500.0" y="389" width="15.4" height="15.0" fill="rgb(228,109,26)" rx="2" ry="2" />
<text  x="503.02" y="399.5" ></text>
</g>
<g >
<title>memory_region_dispatch_read (74,675 samples, 1.90%)</title><rect x="554.6" y="405" width="22.4" height="15.0" fill="rgb(227,101,24)" rx="2" ry="2" />
<text  x="557.58" y="415.5" >m..</text>
</g>
<g >
<title>helper_ldul_mmu (122,510 samples, 3.12%)</title><rect x="554.6" y="469" width="36.8" height="15.0" fill="rgb(240,163,39)" rx="2" ry="2" />
<text  x="557.58" y="479.5" >hel..</text>
</g>
<g >
<title>tlb_set_page_full (147,541 samples, 3.76%)</title><rect x="684.4" y="389" width="44.4" height="15.0" fill="rgb(219,67,16)" rx="2" ry="2" />
<text  x="687.41" y="399.5" >tlb_..</text>
</g>
<g >
<title>ttwu_do_activate (53,757 samples, 1.37%)</title><rect x="1158.7" y="133" width="16.1" height="15.0" fill="rgb(215,48,11)" rx="2" ry="2" />
<text  x="1161.66" y="143.5" ></text>
</g>
<g >
<title>[qemu-system-aarch64] (212,633 samples, 5.42%)</title><rect x="953.5" y="453" width="64.0" height="15.0" fill="rgb(242,170,40)" rx="2" ry="2" />
<text  x="956.51" y="463.5" >[qemu-s..</text>
</g>
<g >
<title>aa64_va_parameters (47,146 samples, 1.20%)</title><rect x="953.6" y="277" width="14.2" height="15.0" fill="rgb(208,16,3)" rx="2" ry="2" />
<text  x="956.58" y="287.5" ></text>
</g>
<g >
<title>security_file_permission (54,765 samples, 1.40%)</title><rect x="780.9" y="261" width="16.5" height="15.0" fill="rgb(225,96,23)" rx="2" ry="2" />
<text  x="783.95" y="271.5" ></text>
</g>
<g >
<title>___pthread_cond_broadcast (53,757 samples, 1.37%)</title><rect x="1158.7" y="293" width="16.1" height="15.0" fill="rgb(208,15,3)" rx="2" ry="2" />
<text  x="1161.66" y="303.5" ></text>
</g>
<g >
<title>[qemu-system-aarch64] (213,643 samples, 5.45%)</title><rect x="1110.6" y="357" width="64.2" height="15.0" fill="rgb(242,170,40)" rx="2" ry="2" />
<text  x="1113.56" y="367.5" >[qemu-s..</text>
</g>
<g >
<title>helper_lookup_tb_ptr (629,944 samples, 16.06%)</title><rect x="591.4" y="469" width="189.5" height="15.0" fill="rgb(244,180,43)" rx="2" ry="2" />
<text  x="594.43" y="479.5" >helper_lookup_tb_ptr</text>
</g>
<g >
<title>g_source_ref (55,520 samples, 1.42%)</title><rect x="1038.8" y="325" width="16.7" height="15.0" fill="rgb(228,109,26)" rx="2" ry="2" />
<text  x="1041.77" y="335.5" ></text>
</g>
<g >
<title>__pthread_cond_wait_common (768 samples, 0.02%)</title><rect x="1017.2" y="389" width="0.2" height="15.0" fill="rgb(210,24,5)" rx="2" ry="2" />
<text  x="1020.17" y="399.5" ></text>
</g>
<g >
<title>[qemu-system-aarch64] (54,765 samples, 1.40%)</title><rect x="780.9" y="453" width="16.5" height="15.0" fill="rgb(242,170,40)" rx="2" ry="2" />
<text  x="783.95" y="463.5" ></text>
</g>
<g >
<title>asm_sysvec_apic_timer_interrupt (50,461 samples, 1.29%)</title><rect x="845.0" y="469" width="15.2" height="15.0" fill="rgb(232,127,30)" rx="2" ry="2" />
<text  x="848.01" y="479.5" ></text>
</g>
<g >
<title>__libc_start_main_impl (571,994 samples, 14.58%)</title><rect x="1017.9" y="485" width="172.1" height="15.0" fill="rgb(218,63,15)" rx="2" ry="2" />
<text  x="1020.92" y="495.5" >__libc_start_main_impl</text>
</g>
<g >
<title>__futex_abstimed_wait_cancelable64 (512 samples, 0.01%)</title><rect x="1017.2" y="373" width="0.2" height="15.0" fill="rgb(236,146,34)" rx="2" ry="2" />
<text  x="1020.24" y="383.5" ></text>
</g>
<g >
<title>cpu_exec (159,972 samples, 4.08%)</title><rect x="953.5" y="437" width="48.1" height="15.0" fill="rgb(211,29,7)" rx="2" ry="2" />
<text  x="956.51" y="447.5" >cpu_..</text>
</g>
<g >
<title>[qemu-system-aarch64] (74,675 samples, 1.90%)</title><rect x="554.6" y="389" width="22.4" height="15.0" fill="rgb(242,170,40)" rx="2" ry="2" />
<text  x="557.58" y="399.5" >[..</text>
</g>
</g>
</svg>
